<svg width="30" height="30" viewBox="0 0 30 30" fill="none" xmlns="http://www.w3.org/2000/svg">
<circle cx="15" cy="15" r="15" fill="white"/>
<path d="M14.5 5.75C12.6435 5.75 10.863 6.4875 9.55022 7.80025C8.23747 9.11301 7.49997 10.8935 7.49997 12.75V15.1685L5.84272 18.483C5.77587 18.6164 5.74425 18.7647 5.75086 18.9137C5.75747 19.0628 5.80208 19.2077 5.88047 19.3347C5.95886 19.4616 6.06841 19.5664 6.19872 19.6391C6.32903 19.7118 6.47576 19.75 6.62497 19.75H22.375C22.5242 19.75 22.6709 19.7118 22.8012 19.6391C22.9315 19.5664 23.0411 19.4616 23.1195 19.3347C23.1979 19.2077 23.2425 19.0628 23.2491 18.9137C23.2557 18.7647 23.2241 18.6164 23.1572 18.483L21.5 15.1685V12.75C21.5 10.8935 20.7625 9.11301 19.4497 7.80025C18.137 6.4875 16.3565 5.75 14.5 5.75ZM14.5 24.125C13.7239 24.1252 12.9697 23.8674 12.3561 23.3923C11.7425 22.9171 11.3042 22.2514 11.1102 21.5H17.8897C17.6957 22.2514 17.2574 22.9171 16.6438 23.3923C16.0302 23.8674 15.2761 24.1252 14.5 24.125Z" fill="#9EBFAD"/>
</svg>
