<svg width="30" height="30" viewBox="0 0 30 30" fill="none" xmlns="http://www.w3.org/2000/svg">
<circle cx="15" cy="15" r="15" fill="#FF57A2"/>
<path d="M9.44995 12.8085L7.4637 13.3667C7.27989 13.4183 7.11798 13.5285 7.00265 13.6807C6.88733 13.8328 6.82492 14.0185 6.82495 14.2094V21.1C6.82495 21.3321 6.91714 21.5546 7.08123 21.7187C7.24533 21.8828 7.46789 21.975 7.69995 21.975H9.44995V12.8085ZM19.95 12.8085L21.9362 13.3667C22.12 13.4183 22.2819 13.5285 22.3972 13.6807C22.5126 13.8328 22.575 14.0185 22.575 14.2094V21.1C22.575 21.3321 22.4828 21.5546 22.3187 21.7187C22.1546 21.8828 21.932 21.975 21.7 21.975H19.95V12.8085Z" fill="white"/>
<path fill-rule="evenodd" clip-rule="evenodd" d="M15.1856 6.37198C15.0418 6.27605 14.8728 6.22485 14.6999 6.22485C14.5271 6.22485 14.3581 6.27605 14.2143 6.37198L8.96432 9.87198C8.77124 10.0008 8.63723 10.201 8.59178 10.4286C8.54632 10.6562 8.59315 10.8925 8.72194 11.0856C8.85074 11.2787 9.05096 11.4127 9.27856 11.4581C9.50616 11.5036 9.74249 11.4568 9.93557 11.328L11.1999 10.4854V21.975H18.1999V10.4854L19.4643 11.328C19.6081 11.4239 19.7771 11.475 19.9499 11.475C20.1381 11.4757 20.3214 11.4156 20.4726 11.3038C20.6239 11.192 20.7351 11.0343 20.7896 10.8543C20.8442 10.6743 20.8392 10.4814 20.7754 10.3045C20.7116 10.1275 20.5924 9.97583 20.4356 9.87198L15.1856 6.37198ZM12.9499 14.1C12.9499 13.8679 13.0421 13.6454 13.2062 13.4813C13.3703 13.3172 13.5929 13.225 13.8249 13.225H15.5749C15.807 13.225 16.0296 13.3172 16.1937 13.4813C16.3578 13.6454 16.4499 13.8679 16.4499 14.1C16.4499 14.332 16.3578 14.5546 16.1937 14.7187C16.0296 14.8828 15.807 14.975 15.5749 14.975H13.8249C13.5929 14.975 13.3703 14.8828 13.2062 14.7187C13.0421 14.5546 12.9499 14.332 12.9499 14.1ZM13.8249 10.6C13.5929 10.6 13.3703 10.6922 13.2062 10.8563C13.0421 11.0204 12.9499 11.2429 12.9499 11.475C12.9499 11.707 13.0421 11.9296 13.2062 12.0937C13.3703 12.2578 13.5929 12.35 13.8249 12.35H15.5749C15.807 12.35 16.0296 12.2578 16.1937 12.0937C16.3578 11.9296 16.4499 11.707 16.4499 11.475C16.4499 11.2429 16.3578 11.0204 16.1937 10.8563C16.0296 10.6922 15.807 10.6 15.5749 10.6H13.8249Z" fill="white"/>
</svg>
