<svg width="50" height="50" viewBox="0 0 50 50" fill="none" xmlns="http://www.w3.org/2000/svg">
<circle cx="25" cy="25" r="25" fill="white"/>
<path d="M15.75 21.3475L12.4396 22.2779C12.1332 22.3638 11.8634 22.5475 11.6712 22.8011C11.479 23.0546 11.375 23.3641 11.375 23.6823V35.1666C11.375 35.5534 11.5286 35.9243 11.8021 36.1978C12.0756 36.4713 12.4466 36.625 12.8333 36.625H15.75V21.3475ZM33.25 21.3475L36.5604 22.2779C36.8668 22.3638 37.1366 22.5475 37.3288 22.8011C37.521 23.0546 37.625 23.3641 37.625 23.6823V35.1666C37.625 35.5534 37.4714 35.9243 37.1979 36.1978C36.9244 36.4713 36.5534 36.625 36.1667 36.625H33.25V21.3475Z" fill="#888888"/>
<path fill-rule="evenodd" clip-rule="evenodd" d="M25.3094 10.62C25.0698 10.4601 24.7881 10.3748 24.5 10.3748C24.2119 10.3748 23.9303 10.4601 23.6906 10.62L14.9407 16.4533C14.6189 16.668 14.3955 17.0017 14.3198 17.381C14.244 17.7603 14.322 18.1542 14.5367 18.476C14.7514 18.7978 15.0851 19.0212 15.4644 19.0969C15.8437 19.1727 16.2376 19.0946 16.5594 18.88L18.6667 17.4756V36.625H30.3334V17.4756L32.4407 18.88C32.6803 19.0398 32.962 19.125 33.25 19.125C33.5635 19.1261 33.8691 19.026 34.1212 18.8397C34.3733 18.6533 34.5586 18.3906 34.6495 18.0905C34.7404 17.7904 34.7321 17.4691 34.6258 17.1741C34.5195 16.8792 34.3208 16.6264 34.0594 16.4533L25.3094 10.62ZM21.5834 23.5C21.5834 23.1132 21.737 22.7423 22.0105 22.4688C22.284 22.1953 22.6549 22.0416 23.0417 22.0416H25.9584C26.3451 22.0416 26.7161 22.1953 26.9896 22.4688C27.263 22.7423 27.4167 23.1132 27.4167 23.5C27.4167 23.8867 27.263 24.2577 26.9896 24.5312C26.7161 24.8047 26.3451 24.9583 25.9584 24.9583H23.0417C22.6549 24.9583 22.284 24.8047 22.0105 24.5312C21.737 24.2577 21.5834 23.8867 21.5834 23.5ZM23.0417 17.6666C22.6549 17.6666 22.284 17.8203 22.0105 18.0938C21.737 18.3673 21.5834 18.7382 21.5834 19.125C21.5834 19.5117 21.737 19.8827 22.0105 20.1562C22.284 20.4297 22.6549 20.5833 23.0417 20.5833H25.9584C26.3451 20.5833 26.7161 20.4297 26.9896 20.1562C27.263 19.8827 27.4167 19.5117 27.4167 19.125C27.4167 18.7382 27.263 18.3673 26.9896 18.0938C26.7161 17.8203 26.3451 17.6666 25.9584 17.6666H23.0417Z" fill="#888888"/>
</svg>
