<svg width="50" height="50" viewBox="0 0 50 50" fill="none" xmlns="http://www.w3.org/2000/svg">
<circle cx="25" cy="25" r="25" fill="white"/>
<path d="M15.1667 9.91669C14.1611 9.91669 13.1966 10.3162 12.4856 11.0272C11.7745 11.7383 11.375 12.7027 11.375 13.7084V20.7084C11.375 21.2063 11.4731 21.6993 11.6636 22.1594C11.8542 22.6194 12.1335 23.0374 12.4856 23.3895C13.1966 24.1005 14.1611 24.5 15.1667 24.5H19.25C20.2556 24.5 21.22 24.1005 21.9311 23.3895C22.6422 22.6784 23.0417 21.714 23.0417 20.7084V13.7084C23.0417 12.7027 22.6422 11.7383 21.9311 11.0272C21.22 10.3162 20.2556 9.91669 19.25 9.91669H15.1667ZM15.1667 27.4167C14.1611 27.4167 13.1966 27.8162 12.4856 28.5272C11.7745 29.2383 11.375 30.2027 11.375 31.2084V35.2917C11.375 36.2973 11.7745 37.2617 12.4856 37.9728C13.1966 38.6839 14.1611 39.0834 15.1667 39.0834H19.25C20.2556 39.0834 21.22 38.6839 21.9311 37.9728C22.6422 37.2617 23.0417 36.2973 23.0417 35.2917V31.2084C23.0417 30.2027 22.6422 29.2383 21.9311 28.5272C21.22 27.8162 20.2556 27.4167 19.25 27.4167H15.1667ZM29.75 9.91669C28.7444 9.91669 27.78 10.3162 27.0689 11.0272C26.3578 11.7383 25.9583 12.7027 25.9583 13.7084V17.7917C25.9583 18.7973 26.3578 19.7617 27.0689 20.4728C27.78 21.1839 28.7444 21.5834 29.75 21.5834H33.8333C34.3313 21.5834 34.8243 21.4853 35.2843 21.2947C35.7444 21.1042 36.1624 20.8249 36.5144 20.4728C36.8665 20.1207 37.1458 19.7027 37.3364 19.2427C37.5269 18.7827 37.625 18.2896 37.625 17.7917V13.7084C37.625 13.2104 37.5269 12.7174 37.3364 12.2573C37.1458 11.7973 36.8665 11.3793 36.5144 11.0272C36.1624 10.6752 35.7444 10.3959 35.2843 10.2053C34.8243 10.0148 34.3313 9.91669 33.8333 9.91669H29.75ZM29.75 24.5C28.7444 24.5 27.78 24.8995 27.0689 25.6106C26.3578 26.3216 25.9583 27.2861 25.9583 28.2917V35.2917C25.9583 36.2973 26.3578 37.2617 27.0689 37.9728C27.78 38.6839 28.7444 39.0834 29.75 39.0834H33.8333C34.3313 39.0834 34.8243 38.9853 35.2843 38.7947C35.7444 38.6042 36.1624 38.3249 36.5144 37.9728C36.8665 37.6207 37.1458 37.2027 37.3364 36.7427C37.5269 36.2827 37.625 35.7896 37.625 35.2917V28.2917C37.625 27.7938 37.5269 27.3007 37.3364 26.8407C37.1458 26.3807 36.8665 25.9627 36.5144 25.6106C36.1624 25.2585 35.7444 24.9792 35.2843 24.7886C34.8243 24.5981 34.3313 24.5 33.8333 24.5H29.75Z" fill="#888888"/>
</svg>
