<svg width="30" height="30" viewBox="0 0 30 30" fill="none" xmlns="http://www.w3.org/2000/svg">
<path d="M12.7975 4.9675L12.475 7.1875H17.5213L17.2012 4.9675C17.1412 4.75875 16.9887 4.6875 16.8975 4.6875H13.1C13.0087 4.6875 12.8575 4.75875 12.7975 4.9675ZM19.4162 7.1875H24.375C24.6236 7.1875 24.8621 7.28627 25.0379 7.46209C25.2137 7.6379 25.3125 7.87636 25.3125 8.125C25.3125 8.37364 25.2137 8.6121 25.0379 8.78791C24.8621 8.96373 24.6236 9.0625 24.375 9.0625H23.4138L22.3225 21.7937C22.2562 22.5687 22.2025 23.2062 22.1163 23.7212C22.0288 24.2575 21.895 24.7375 21.6337 25.1825C21.2235 25.8814 20.6136 26.4417 19.8825 26.7913C19.4175 27.0125 18.9275 27.1037 18.385 27.1462C17.8638 27.1875 17.225 27.1875 16.4475 27.1875H13.5525C12.7737 27.1875 12.1362 27.1875 11.615 27.1462C11.0725 27.1037 10.5825 27.0125 10.1175 26.7913C9.38635 26.4417 8.77647 25.8814 8.36625 25.1825C8.10375 24.7375 7.9725 24.2575 7.88375 23.7212C7.7975 23.205 7.74375 22.5687 7.6775 21.7937L6.58625 9.0625H5.625C5.37636 9.0625 5.1379 8.96373 4.96209 8.78791C4.78627 8.6121 4.6875 8.37364 4.6875 8.125C4.6875 7.87636 4.78627 7.6379 4.96209 7.46209C5.1379 7.28627 5.37636 7.1875 5.625 7.1875H10.5825L10.9487 4.65125L10.9625 4.575C11.19 3.5875 12.0375 2.8125 13.1 2.8125H16.9C17.9625 2.8125 18.81 3.5875 19.0375 4.575L19.0513 4.65125L19.4162 7.1875Z" fill="white"/>
</svg>
