<svg width="30" height="30" viewBox="0 0 30 30" fill="none" xmlns="http://www.w3.org/2000/svg">
<path d="M20.6667 3.37501C21.0555 2.9737 21.5204 2.65377 22.0341 2.43384C22.5478 2.21392 23.1002 2.0984 23.659 2.094C24.2178 2.08961 24.7718 2.19643 25.289 2.40825C25.8061 2.62007 26.2759 2.93265 26.671 3.32779C27.0662 3.72293 27.3787 4.19274 27.5906 4.70985C27.8024 5.22697 27.9092 5.78106 27.9048 6.33986C27.9004 6.89866 27.7849 7.451 27.565 7.96472C27.345 8.47844 27.0251 8.94327 26.6238 9.33215L24.9738 10.9822L19.0167 5.02501L20.6667 3.37501ZM17.881 6.16072L4.82345 19.2182C4.35202 19.6897 4.00917 20.2747 3.82917 20.9175L2.17167 26.8372C2.13337 26.9744 2.13224 27.1193 2.1684 27.2571C2.20456 27.3949 2.27671 27.5206 2.37745 27.6214C2.47819 27.7221 2.6039 27.7943 2.7417 27.8304C2.8795 27.8666 3.02444 27.8654 3.16167 27.8272L9.08024 26.1697C9.72352 25.991 10.3094 25.6484 10.7806 25.1754L23.8392 12.1189L17.881 6.16072Z" fill="#FFDC9B"/>
</svg>
