<svg width="250" height="250" viewBox="0 0 250 250" fill="none" xmlns="http://www.w3.org/2000/svg">
<g clip-path="url(#clip0_4_14)">
<rect width="250" height="250" fill="white"/>
<path d="M182.005 76.4372C182 71.5934 180.169 66.9494 176.914 63.5243C173.659 60.0992 169.246 58.1727 164.642 58.1677H83.6162C79.0128 58.1727 74.5993 60.0992 71.3442 63.5243C68.0891 66.9494 66.2582 71.5934 66.2534 76.4372V210.414C66.2582 215.258 68.0891 219.902 71.3442 223.327C74.5993 226.752 79.0128 228.678 83.6162 228.683H164.642C169.246 228.678 173.659 226.752 176.914 223.327C180.169 219.902 182 215.258 182.005 210.414V76.4372ZM92.2976 210.414C90.5805 210.414 88.9021 209.878 87.4744 208.874C86.0468 207.871 84.9341 206.444 84.277 204.775C83.6199 203.106 83.448 201.269 83.783 199.497C84.118 197.725 84.9448 196.097 86.1589 194.82C87.373 193.542 88.9199 192.672 90.6039 192.32C92.2879 191.967 94.0335 192.148 95.6198 192.84C97.2061 193.531 98.5619 194.702 99.5158 196.204C100.47 197.706 100.979 199.472 100.979 201.279C100.979 203.702 100.064 206.025 98.4362 207.738C96.8081 209.451 94.6 210.414 92.2976 210.414ZM92.2976 179.965C90.5805 179.965 88.9021 179.429 87.4744 178.425C86.0468 177.421 84.9341 175.995 84.277 174.326C83.6199 172.656 83.448 170.82 83.783 169.048C84.118 167.276 84.9448 165.648 86.1589 164.371C87.373 163.093 88.9199 162.223 90.6039 161.871C92.2879 161.518 94.0335 161.699 95.6198 162.39C97.2061 163.082 98.5619 164.253 99.5158 165.755C100.47 167.257 100.979 169.023 100.979 170.83C100.979 173.253 100.064 175.576 98.4362 177.289C96.8081 179.002 94.6 179.965 92.2976 179.965ZM92.2976 149.515C90.5805 149.515 88.9021 148.98 87.4744 147.976C86.0468 146.972 84.9341 145.546 84.277 143.876C83.6199 142.207 83.448 140.371 83.783 138.599C84.118 136.827 84.9448 135.199 86.1589 133.921C87.373 132.644 88.9199 131.774 90.6039 131.421C92.2879 131.069 94.0335 131.25 95.6198 131.941C97.2061 132.633 98.5619 133.803 99.5158 135.306C100.47 136.808 100.979 138.574 100.979 140.381C100.979 142.803 100.064 145.127 98.4362 146.84C96.8081 148.553 94.6 149.515 92.2976 149.515ZM124.129 210.414C122.412 210.414 120.734 209.878 119.306 208.874C117.878 207.871 116.766 206.444 116.109 204.775C115.452 203.106 115.28 201.269 115.615 199.497C115.95 197.725 116.776 196.097 117.991 194.82C119.205 193.542 120.752 192.672 122.436 192.32C124.12 191.967 125.865 192.148 127.451 192.84C129.038 193.531 130.394 194.702 131.348 196.204C132.301 197.706 132.811 199.472 132.811 201.279C132.811 203.702 131.896 206.025 130.268 207.738C128.64 209.451 126.432 210.414 124.129 210.414ZM124.129 179.965C122.412 179.965 120.734 179.429 119.306 178.425C117.878 177.421 116.766 175.995 116.109 174.326C115.452 172.656 115.28 170.82 115.615 169.048C115.95 167.276 116.776 165.648 117.991 164.371C119.205 163.093 120.752 162.223 122.436 161.871C124.12 161.518 125.865 161.699 127.451 162.39C129.038 163.082 130.394 164.253 131.348 165.755C132.301 167.257 132.811 169.023 132.811 170.83C132.811 173.253 131.896 175.576 130.268 177.289C128.64 179.002 126.432 179.965 124.129 179.965ZM124.129 149.515C122.412 149.515 120.734 148.98 119.306 147.976C117.878 146.972 116.766 145.546 116.109 143.876C115.452 142.207 115.28 140.371 115.615 138.599C115.95 136.827 116.776 135.199 117.991 133.921C119.205 132.644 120.752 131.774 122.436 131.421C124.12 131.069 125.865 131.25 127.451 131.941C129.038 132.633 130.394 133.803 131.348 135.306C132.301 136.808 132.811 138.574 132.811 140.381C132.811 142.803 131.896 145.127 130.268 146.84C128.64 148.553 126.432 149.515 124.129 149.515ZM164.642 201.279C164.642 203.702 163.728 206.025 162.1 207.738C160.471 209.451 158.263 210.414 155.961 210.414C153.658 210.414 151.45 209.451 149.822 207.738C148.194 206.025 147.28 203.702 147.28 201.279V170.83C147.28 168.407 148.194 166.084 149.822 164.371C151.45 162.658 153.658 161.695 155.961 161.695C158.263 161.695 160.471 162.658 162.1 164.371C163.728 166.084 164.642 168.407 164.642 170.83V201.279ZM155.961 149.515C154.244 149.515 152.565 148.98 151.138 147.976C149.71 146.972 148.597 145.546 147.94 143.876C147.283 142.207 147.111 140.371 147.446 138.599C147.781 136.827 148.608 135.199 149.822 133.921C151.036 132.644 152.583 131.774 154.267 131.421C155.951 131.069 157.697 131.25 159.283 131.941C160.869 132.633 162.225 133.803 163.179 135.306C164.133 136.808 164.642 138.574 164.642 140.381C164.642 142.803 163.728 145.127 162.1 146.84C160.471 148.553 158.263 149.515 155.961 149.515ZM162.946 111.191C161.861 112.333 160.389 112.976 158.855 112.976H89.4038C87.8688 112.976 86.3967 112.335 85.3113 111.193C84.2259 110.051 83.6162 108.502 83.6162 106.886V82.5271C83.6162 80.912 84.2259 79.363 85.3113 78.2209C86.3967 77.0788 87.8688 76.4372 89.4038 76.4372H158.855C160.39 76.4372 161.862 77.0788 162.947 78.2209C164.033 79.363 164.642 80.912 164.642 82.5271V106.886C164.642 108.501 164.031 110.05 162.946 111.191Z" fill="#FF8CBF"/>
<path d="M106.445 43.8558C106.602 44.452 106.989 44.9613 107.522 45.2716C108.055 45.582 108.689 45.6681 109.285 45.5109C109.881 45.3537 110.391 44.9662 110.701 44.4335C111.011 43.9008 111.097 43.2666 110.94 42.6705L106.445 43.8558ZM102.296 28.1214L106.445 43.8558L110.94 42.6705L106.792 26.9361L102.296 28.1214Z" fill="#C7DFD2"/>
<path fill-rule="evenodd" clip-rule="evenodd" d="M55.9408 53.2294C55.7462 53.1886 55.5444 53.1983 55.3547 53.2578C55.165 53.3172 54.9937 53.4243 54.8572 53.5688C54.7207 53.7133 54.6236 53.8905 54.5751 54.0832C54.5265 54.276 54.5283 54.478 54.5801 54.67L58.2487 68.5837C58.2487 68.5837 61.8047 82.0703 84.2824 76.1437C106.76 70.217 103.204 56.7304 103.204 56.7304L99.5355 42.8167C99.4853 42.6248 99.3868 42.4489 99.2494 42.3058C99.112 42.1627 98.9402 42.0571 98.7505 41.9992C98.5607 41.9413 98.3593 41.9329 98.1654 41.9748C97.9714 42.0167 97.7915 42.1076 97.6426 42.2388L81.2896 56.6235C80.7474 57.1007 80.1015 57.445 79.4031 57.6292C78.7047 57.8133 77.973 57.8322 77.2661 57.6843L55.9408 53.2294Z" fill="#C7DFD2"/>
<path d="M41.1393 42.0972L67.9989 18.4706C68.2702 18.2316 68.5935 18.0591 68.9431 17.9669C69.2927 17.8747 69.659 17.8654 70.0129 17.9396L105.029 25.2469C105.452 25.3347 105.842 25.5387 106.156 25.8361C106.47 26.1335 106.694 26.5124 106.804 26.9303C106.914 27.3482 106.906 27.7886 106.78 28.202C106.653 28.6153 106.415 28.9853 106.09 29.2704L79.23 52.8969C78.9587 53.136 78.6354 53.3085 78.2858 53.4006C77.9362 53.4928 77.5699 53.5022 77.216 53.428L42.2001 46.1207C41.7769 46.0329 41.3866 45.8289 41.073 45.5315C40.7593 45.2341 40.5348 44.8552 40.4246 44.4372C40.3144 44.0193 40.3229 43.5789 40.4492 43.1656C40.5754 42.7522 40.8144 42.3822 41.1393 42.0972Z" fill="#C7DFD2"/>
<path d="M41.1393 42.0972L67.9989 18.4706C68.2702 18.2316 68.5935 18.0591 68.9431 17.9669C69.2927 17.8748 69.659 17.8654 70.0129 17.9396L105.029 25.2469C105.452 25.3347 105.842 25.5387 106.156 25.8361C106.47 26.1335 106.694 26.5124 106.804 26.9303C106.914 27.3483 106.906 27.7886 106.78 28.202C106.653 28.6154 106.415 28.9853 106.09 29.2704L79.23 52.8969C78.9587 53.136 78.6354 53.3085 78.2858 53.4007C77.9362 53.4928 77.5699 53.5022 77.216 53.428L42.2001 46.1207C41.7769 46.0329 41.3866 45.8289 41.073 45.5315C40.7593 45.2341 40.5348 44.8552 40.4246 44.4373C40.3144 44.0193 40.3229 43.579 40.4492 43.1656C40.5754 42.7522 40.8144 42.3823 41.1393 42.0972Z" fill="#C7DFD2"/>
</g>
<defs>
<clipPath id="clip0_4_14">
<rect width="250" height="250" fill="white"/>
</clipPath>
</defs>
</svg>
