<svg width="112" height="58" viewBox="0 0 112 58" fill="none" xmlns="http://www.w3.org/2000/svg">
<g clip-path="url(#clip0_6_305)">
<path d="M15.4688 20.25C15.7423 20.25 16.0046 20.3586 16.198 20.552C16.3914 20.7454 16.5 21.0077 16.5 21.2812V26.4375H21.6562C21.9298 26.4375 22.1921 26.5461 22.3855 26.7395C22.5789 26.9329 22.6875 27.1952 22.6875 27.4688C22.6875 27.7423 22.5789 28.0046 22.3855 28.198C22.1921 28.3914 21.9298 28.5 21.6562 28.5H16.5V33.6562C16.5 33.9298 16.3914 34.1921 16.198 34.3855C16.0046 34.5789 15.7423 34.6875 15.4688 34.6875C15.1952 34.6875 14.9329 34.5789 14.7395 34.3855C14.5461 34.1921 14.4375 33.9298 14.4375 33.6562V28.5H9.28125C9.00775 28.5 8.74544 28.3914 8.55205 28.198C8.35865 28.0046 8.25 27.7423 8.25 27.4688C8.25 27.1952 8.35865 26.9329 8.55205 26.7395C8.74544 26.5461 9.00775 26.4375 9.28125 26.4375H14.4375V21.2812C14.4375 21.0077 14.5461 20.7454 14.7395 20.552C14.9329 20.3586 15.1952 20.25 15.4688 20.25Z" fill="white"/>
<path fill-rule="evenodd" clip-rule="evenodd" d="M0 25.2C0 20.58 0 18.27 0.89925 16.4962C1.69402 14.9443 2.95671 13.6816 4.50863 12.8869C6.27413 11.9876 8.59237 11.9876 13.2124 11.9876H17.7499C22.3699 11.9876 24.6799 11.9876 26.4536 12.8869C28.0067 13.6768 29.2586 14.939 30.063 16.4962C30.9622 18.2617 30.9622 20.58 30.9622 25.2V29.7375C30.9622 34.3575 30.9622 36.6675 30.063 38.4412C29.2682 39.9931 28.0055 41.2558 26.4536 42.0506C24.6881 42.9499 22.3699 42.9499 17.7499 42.9499H13.2124C8.59237 42.9499 6.28238 42.9499 4.50863 42.0506C2.95671 41.2558 1.69402 39.9931 0.89925 38.4412C0 36.6757 0 34.3575 0 29.7375V25.2ZM13.2 14.0625H17.7375C20.0888 14.0625 21.7181 14.0625 22.9969 14.1677C24.2447 14.2708 24.9624 14.4605 25.5131 14.7369C26.6746 15.3322 27.6197 16.2773 28.215 17.4388C28.4914 17.9812 28.6811 18.699 28.7843 19.955C28.8874 21.2276 28.8894 22.8632 28.8894 25.2144V29.7519C28.8894 32.1032 28.8894 33.7325 28.7843 35.0113C28.6811 36.2591 28.4914 36.9769 28.215 37.5275C27.622 38.6907 26.6762 39.6364 25.5131 40.2294C24.9707 40.5058 24.2529 40.6955 22.9969 40.7987C21.7243 40.9018 20.0888 40.9039 17.7375 40.9039H13.2C10.8488 40.9039 9.21937 40.9039 7.94062 40.8007C6.69281 40.6976 5.97506 40.5058 5.42438 40.2294C4.26125 39.6364 3.31552 38.6907 2.7225 37.5275C2.44613 36.9851 2.25638 36.2694 2.15325 35.0113C2.05013 33.7387 2.04806 32.1032 2.04806 29.7519V25.2144C2.04806 22.8632 2.04806 21.2338 2.15325 19.955C2.25638 18.7072 2.44613 17.9895 2.7225 17.4388C3.31782 16.2773 4.26293 15.3322 5.42438 14.7369C5.96681 14.4605 6.68456 14.2708 7.94062 14.1677C9.21319 14.0645 10.8488 14.0625 13.2 14.0625Z" fill="white"/>
</g>
<path d="M50.2695 5.9375V23H47.3281L39.6758 10.7773V23H36.7344V5.9375H39.6758L47.3516 18.1836V5.9375H50.2695ZM59.082 23.2344C58.1445 23.2344 57.2969 23.082 56.5391 22.7773C55.7891 22.4648 55.1484 22.0312 54.6172 21.4766C54.0938 20.9219 53.6914 20.2695 53.4102 19.5195C53.1289 18.7695 52.9883 17.9609 52.9883 17.0938V16.625C52.9883 15.6328 53.1328 14.7344 53.4219 13.9297C53.7109 13.125 54.1133 12.4375 54.6289 11.8672C55.1445 11.2891 55.7539 10.8477 56.457 10.543C57.1602 10.2383 57.9219 10.0859 58.7422 10.0859C59.6484 10.0859 60.4414 10.2383 61.1211 10.543C61.8008 10.8477 62.3633 11.2773 62.8086 11.832C63.2617 12.3789 63.5977 13.0312 63.8164 13.7891C64.043 14.5469 64.1562 15.3828 64.1562 16.2969V17.5039H54.3594V15.4766H61.3672V15.2539C61.3516 14.7461 61.25 14.2695 61.0625 13.8242C60.8828 13.3789 60.6055 13.0195 60.2305 12.7461C59.8555 12.4727 59.3555 12.3359 58.7305 12.3359C58.2617 12.3359 57.8438 12.4375 57.4766 12.6406C57.1172 12.8359 56.8164 13.1211 56.5742 13.4961C56.332 13.8711 56.1445 14.3242 56.0117 14.8555C55.8867 15.3789 55.8242 15.9688 55.8242 16.625V17.0938C55.8242 17.6484 55.8984 18.1641 56.0469 18.6406C56.2031 19.1094 56.4297 19.5195 56.7266 19.8711C57.0234 20.2227 57.3828 20.5 57.8047 20.7031C58.2266 20.8984 58.707 20.9961 59.2461 20.9961C59.9258 20.9961 60.5312 20.8594 61.0625 20.5859C61.5938 20.3125 62.0547 19.9258 62.4453 19.4258L63.9336 20.8672C63.6602 21.2656 63.3047 21.6484 62.8672 22.0156C62.4297 22.375 61.8945 22.668 61.2617 22.8945C60.6367 23.1211 59.9102 23.2344 59.082 23.2344ZM69.8047 20.1875L72.7344 10.3203H74.5391L74.0469 13.2734L71.0938 23H69.4766L69.8047 20.1875ZM68.082 10.3203L70.3672 20.2344L70.5547 23H68.75L65.3164 10.3203H68.082ZM77.2812 20.1172L79.4961 10.3203H82.25L78.8281 23H77.0234L77.2812 20.1172ZM74.8438 10.3203L77.7383 20.0703L78.1016 23H76.4844L73.4961 13.2617L73.0039 10.3203H74.8438ZM46.8125 45.4453H49.7422C49.6484 46.5625 49.3359 47.5586 48.8047 48.4336C48.2734 49.3008 47.5273 49.9844 46.5664 50.4844C45.6055 50.9844 44.4375 51.2344 43.0625 51.2344C42.0078 51.2344 41.0586 51.0469 40.2148 50.6719C39.3711 50.2891 38.6484 49.75 38.0469 49.0547C37.4453 48.3516 36.9844 47.5039 36.6641 46.5117C36.3516 45.5195 36.1953 44.4102 36.1953 43.1836V41.7656C36.1953 40.5391 36.3555 39.4297 36.6758 38.4375C37.0039 37.4453 37.4727 36.5977 38.082 35.8945C38.6914 35.1836 39.4219 34.6406 40.2734 34.2656C41.1328 33.8906 42.0977 33.7031 43.168 33.7031C44.5273 33.7031 45.6758 33.9531 46.6133 34.4531C47.5508 34.9531 48.2773 35.6445 48.793 36.5273C49.3164 37.4102 49.6367 38.4219 49.7539 39.5625H46.8242C46.7461 38.8281 46.5742 38.1992 46.3086 37.6758C46.0508 37.1523 45.668 36.7539 45.1602 36.4805C44.6523 36.1992 43.9883 36.0586 43.168 36.0586C42.4961 36.0586 41.9102 36.1836 41.4102 36.4336C40.9102 36.6836 40.4922 37.0508 40.1562 37.5352C39.8203 38.0195 39.5664 38.6172 39.3945 39.3281C39.2305 40.0312 39.1484 40.8359 39.1484 41.7422V43.1836C39.1484 44.043 39.2227 44.8242 39.3711 45.5273C39.5273 46.2227 39.7617 46.8203 40.0742 47.3203C40.3945 47.8203 40.8008 48.207 41.293 48.4805C41.7852 48.7539 42.375 48.8906 43.0625 48.8906C43.8984 48.8906 44.5742 48.7578 45.0898 48.4922C45.6133 48.2266 46.0078 47.8398 46.2734 47.332C46.5469 46.8164 46.7266 46.1875 46.8125 45.4453ZM51.5938 44.8008V44.5312C51.5938 43.6172 51.7266 42.7695 51.9922 41.9883C52.2578 41.1992 52.6406 40.5156 53.1406 39.9375C53.6484 39.3516 54.2656 38.8984 54.9922 38.5781C55.7266 38.25 56.5547 38.0859 57.4766 38.0859C58.4062 38.0859 59.2344 38.25 59.9609 38.5781C60.6953 38.8984 61.3164 39.3516 61.8242 39.9375C62.332 40.5156 62.7188 41.1992 62.9844 41.9883C63.25 42.7695 63.3828 43.6172 63.3828 44.5312V44.8008C63.3828 45.7148 63.25 46.5625 62.9844 47.3438C62.7188 48.125 62.332 48.8086 61.8242 49.3945C61.3164 49.9727 60.6992 50.4258 59.9727 50.7539C59.2461 51.0742 58.4219 51.2344 57.5 51.2344C56.5703 51.2344 55.7383 51.0742 55.0039 50.7539C54.2773 50.4258 53.6602 49.9727 53.1523 49.3945C52.6445 48.8086 52.2578 48.125 51.9922 47.3438C51.7266 46.5625 51.5938 45.7148 51.5938 44.8008ZM54.418 44.5312V44.8008C54.418 45.3711 54.4766 45.9102 54.5938 46.418C54.7109 46.9258 54.8945 47.3711 55.1445 47.7539C55.3945 48.1367 55.7148 48.4375 56.1055 48.6562C56.4961 48.875 56.9609 48.9844 57.5 48.9844C58.0234 48.9844 58.4766 48.875 58.8594 48.6562C59.25 48.4375 59.5703 48.1367 59.8203 47.7539C60.0703 47.3711 60.2539 46.9258 60.3711 46.418C60.4961 45.9102 60.5586 45.3711 60.5586 44.8008V44.5312C60.5586 43.9688 60.4961 43.4375 60.3711 42.9375C60.2539 42.4297 60.0664 41.9805 59.8086 41.5898C59.5586 41.1992 59.2383 40.8945 58.8477 40.6758C58.4648 40.4492 58.0078 40.3359 57.4766 40.3359C56.9453 40.3359 56.4844 40.4492 56.0938 40.6758C55.7109 40.8945 55.3945 41.1992 55.1445 41.5898C54.8945 41.9805 54.7109 42.4297 54.5938 42.9375C54.4766 43.4375 54.418 43.9688 54.418 44.5312ZM73.3789 48.0117V38.3203H76.2148V51H73.543L73.3789 48.0117ZM73.7773 45.375L74.7266 45.3516C74.7266 46.2031 74.6328 46.9883 74.4453 47.707C74.2578 48.418 73.9688 49.0391 73.5781 49.5703C73.1875 50.0938 72.6875 50.5039 72.0781 50.8008C71.4688 51.0898 70.7383 51.2344 69.8867 51.2344C69.2695 51.2344 68.7031 51.1445 68.1875 50.9648C67.6719 50.7852 67.2266 50.5078 66.8516 50.1328C66.4844 49.7578 66.1992 49.2695 65.9961 48.668C65.793 48.0664 65.6914 47.3477 65.6914 46.5117V38.3203H68.5156V46.5352C68.5156 46.9961 68.5703 47.3828 68.6797 47.6953C68.7891 48 68.9375 48.2461 69.125 48.4336C69.3125 48.6211 69.5312 48.7539 69.7812 48.832C70.0312 48.9102 70.2969 48.9492 70.5781 48.9492C71.3828 48.9492 72.0156 48.793 72.4766 48.4805C72.9453 48.1602 73.2773 47.7305 73.4727 47.1914C73.6758 46.6523 73.7773 46.0469 73.7773 45.375ZM81.9453 40.7344V51H79.1211V38.3203H81.8164L81.9453 40.7344ZM85.8242 38.2383L85.8008 40.8633C85.6289 40.832 85.4414 40.8086 85.2383 40.793C85.043 40.7773 84.8477 40.7695 84.6523 40.7695C84.168 40.7695 83.7422 40.8398 83.375 40.9805C83.0078 41.1133 82.6992 41.3086 82.4492 41.5664C82.207 41.8164 82.0195 42.1211 81.8867 42.4805C81.7539 42.8398 81.6758 43.2422 81.6523 43.6875L81.0078 43.7344C81.0078 42.9375 81.0859 42.1992 81.2422 41.5195C81.3984 40.8398 81.6328 40.2422 81.9453 39.7266C82.2656 39.2109 82.6641 38.8086 83.1406 38.5195C83.625 38.2305 84.1836 38.0859 84.8164 38.0859C84.9883 38.0859 85.1719 38.1016 85.3672 38.1328C85.5703 38.1641 85.7227 38.1992 85.8242 38.2383ZM94.707 47.5664C94.707 47.2852 94.6367 47.0312 94.4961 46.8047C94.3555 46.5703 94.0859 46.3594 93.6875 46.1719C93.2969 45.9844 92.7188 45.8125 91.9531 45.6562C91.2812 45.5078 90.6641 45.332 90.1016 45.1289C89.5469 44.918 89.0703 44.6641 88.6719 44.3672C88.2734 44.0703 87.9648 43.7188 87.7461 43.3125C87.5273 42.9062 87.418 42.4375 87.418 41.9062C87.418 41.3906 87.5312 40.9023 87.7578 40.4414C87.9844 39.9805 88.3086 39.5742 88.7305 39.2227C89.1523 38.8711 89.6641 38.5938 90.2656 38.3906C90.875 38.1875 91.5547 38.0859 92.3047 38.0859C93.3672 38.0859 94.2773 38.2656 95.0352 38.625C95.8008 38.9766 96.3867 39.457 96.793 40.0664C97.1992 40.668 97.4023 41.3477 97.4023 42.1055H94.5781C94.5781 41.7695 94.4922 41.457 94.3203 41.168C94.1562 40.8711 93.9062 40.6328 93.5703 40.4531C93.2344 40.2656 92.8125 40.1719 92.3047 40.1719C91.8203 40.1719 91.418 40.25 91.0977 40.4062C90.7852 40.5547 90.5508 40.75 90.3945 40.9922C90.2461 41.2344 90.1719 41.5 90.1719 41.7891C90.1719 42 90.2109 42.1914 90.2891 42.3633C90.375 42.5273 90.5156 42.6797 90.7109 42.8203C90.9062 42.9531 91.1719 43.0781 91.5078 43.1953C91.8516 43.3125 92.2812 43.4258 92.7969 43.5352C93.7656 43.7383 94.5977 44 95.293 44.3203C95.9961 44.6328 96.5352 45.0391 96.9102 45.5391C97.2852 46.0312 97.4727 46.6562 97.4727 47.4141C97.4727 47.9766 97.3516 48.4922 97.1094 48.9609C96.875 49.4219 96.5312 49.8242 96.0781 50.168C95.625 50.5039 95.082 50.7656 94.4492 50.9531C93.8242 51.1406 93.1211 51.2344 92.3398 51.2344C91.1914 51.2344 90.2188 51.0312 89.4219 50.625C88.625 50.2109 88.0195 49.6836 87.6055 49.043C87.1992 48.3945 86.9961 47.7227 86.9961 47.0273H89.7266C89.7578 47.5508 89.9023 47.9688 90.1602 48.2812C90.4258 48.5859 90.7539 48.8086 91.1445 48.9492C91.543 49.082 91.9531 49.1484 92.375 49.1484C92.8828 49.1484 93.3086 49.082 93.6523 48.9492C93.9961 48.8086 94.2578 48.6211 94.4375 48.3867C94.6172 48.1445 94.707 47.8711 94.707 47.5664ZM105.535 51.2344C104.598 51.2344 103.75 51.082 102.992 50.7773C102.242 50.4648 101.602 50.0312 101.07 49.4766C100.547 48.9219 100.145 48.2695 99.8633 47.5195C99.582 46.7695 99.4414 45.9609 99.4414 45.0938V44.625C99.4414 43.6328 99.5859 42.7344 99.875 41.9297C100.164 41.125 100.566 40.4375 101.082 39.8672C101.598 39.2891 102.207 38.8477 102.91 38.543C103.613 38.2383 104.375 38.0859 105.195 38.0859C106.102 38.0859 106.895 38.2383 107.574 38.543C108.254 38.8477 108.816 39.2773 109.262 39.832C109.715 40.3789 110.051 41.0312 110.27 41.7891C110.496 42.5469 110.609 43.3828 110.609 44.2969V45.5039H100.812V43.4766H107.82V43.2539C107.805 42.7461 107.703 42.2695 107.516 41.8242C107.336 41.3789 107.059 41.0195 106.684 40.7461C106.309 40.4727 105.809 40.3359 105.184 40.3359C104.715 40.3359 104.297 40.4375 103.93 40.6406C103.57 40.8359 103.27 41.1211 103.027 41.4961C102.785 41.8711 102.598 42.3242 102.465 42.8555C102.34 43.3789 102.277 43.9688 102.277 44.625V45.0938C102.277 45.6484 102.352 46.1641 102.5 46.6406C102.656 47.1094 102.883 47.5195 103.18 47.8711C103.477 48.2227 103.836 48.5 104.258 48.7031C104.68 48.8984 105.16 48.9961 105.699 48.9961C106.379 48.9961 106.984 48.8594 107.516 48.5859C108.047 48.3125 108.508 47.9258 108.898 47.4258L110.387 48.8672C110.113 49.2656 109.758 49.6484 109.32 50.0156C108.883 50.375 108.348 50.668 107.715 50.8945C107.09 51.1211 106.363 51.2344 105.535 51.2344Z" fill="white"/>
<defs>
<clipPath id="clip0_6_305">
<rect width="33" height="33" fill="white" transform="translate(0 12)"/>
</clipPath>
</defs>
</svg>
